<?xml version="1.0" encoding="UTF-8" standalone="no"?>
<svg
   xmlns:dc="http://purl.org/dc/elements/1.1/"
   xmlns:cc="http://creativecommons.org/ns#"
   xmlns:rdf="http://www.w3.org/1999/02/22-rdf-syntax-ns#"
   xmlns:svg="http://www.w3.org/2000/svg"
   xmlns="http://www.w3.org/2000/svg"
   xmlns:sodipodi="http://sodipodi.sourceforge.net/DTD/sodipodi-0.dtd"
   xmlns:inkscape="http://www.inkscape.org/namespaces/inkscape"
   width="24"
   height="24"
   viewBox="0 0 24 24"
   version="1.1"
   id="svg4"
   sodipodi:docname="iconmonstr-blogger-4.svg"
   inkscape:version="1.0.2 (e86c870879, 2021-01-15)">
  <metadata
     id="metadata10">
    <rdf:RDF>
      <cc:Work
         rdf:about="">
        <dc:format>image/svg+xml</dc:format>
        <dc:type
           rdf:resource="http://purl.org/dc/dcmitype/StillImage" />
      </cc:Work>
    </rdf:RDF>
  </metadata>
  <defs
     id="defs8" />
  <sodipodi:namedview
     pagecolor="#ffffff"
     bordercolor="#666666"
     borderopacity="1"
     objecttolerance="10"
     gridtolerance="10"
     guidetolerance="10"
     inkscape:pageopacity="0"
     inkscape:pageshadow="2"
     inkscape:window-width="1294"
     inkscape:window-height="704"
     id="namedview6"
     showgrid="false"
     inkscape:zoom="20.333333"
     inkscape:cx="2.5327869"
     inkscape:cy="12"
     inkscape:window-x="0"
     inkscape:window-y="0"
     inkscape:window-maximized="1"
     inkscape:current-layer="svg4" />
  <path
     d="M15.5 14.625c0 .484-.387.875-.864.875h-5.273c-.477 0-.863-.392-.863-.875s.387-.875.863-.875h5.272c.478 0 .865.391.865.875zm-6.191-4.375h2.466c.448 0 .809-.392.809-.875s-.361-.875-.81-.875h-2.465c-.447 0-.809.392-.809.875s.362.875.809.875zm14.691 1.75c0 6.627-5.373 12-12 12s-12-5.373-12-12 5.373-12 12-12 12 5.373 12 12zm-5-1.039c0-.383-.311-.692-.691-.692h-1.138c-.583 0-.69-.446-.69-.996-.001-2.36-1.91-4.273-4.265-4.273h-2.952c-2.355 0-4.264 1.913-4.264 4.272v5.455c0 2.36 1.909 4.273 4.264 4.273h5.474c2.353 0 4.262-1.913 4.262-4.272v-3.767z"
     id="path2"
     style="fill:#e6e6e6;fill-opacity:1" />
</svg>
